<svg width="124" height="26" viewBox="0 0 124 26" fill="none" xmlns="http://www.w3.org/2000/svg">
<path d="M35.3429 21.543H39.3675V12.9839C39.3675 12.1432 39.5911 11.4725 40.0383 10.9716C40.5033 10.4529 41.1294 10.1935 41.9164 10.1935C42.7035 10.1935 43.3206 10.4529 43.7677 10.9716C44.2328 11.4725 44.4653 12.1432 44.4653 12.9839V21.543H48.49V12.9839C48.49 12.1432 48.7136 11.4725 49.1607 10.9716C49.6258 10.4529 50.2519 10.1935 51.0389 10.1935C51.8259 10.1935 52.443 10.4529 52.8902 10.9716C53.3553 11.4725 53.5878 12.1432 53.5878 12.9839V21.543H57.6124V12.1254C57.6124 11.0164 57.3799 10.0504 56.9148 9.22764C56.4498 8.38694 55.8058 7.73406 54.983 7.26899C54.1781 6.80392 53.248 6.57139 52.1926 6.57139C51.2446 6.57139 50.3771 6.75921 49.59 7.13484C48.8209 7.49258 48.1769 8.05603 47.6582 8.82518C47.2468 8.12758 46.6386 7.58202 45.8337 7.1885C45.0467 6.77709 44.1702 6.57139 43.2043 6.57139C42.2742 6.57139 41.4514 6.75026 40.7359 7.108C40.0204 7.44786 39.4748 7.97553 39.0992 8.69102V6.89336H35.3429V21.543ZM64.7953 21.8649C66.6198 21.8649 68.0866 21.3015 69.1956 20.1746V21.543H72.9519V11.8839C72.9519 10.8285 72.6836 9.90735 72.147 9.12031C71.6282 8.31539 70.8949 7.68934 69.9468 7.24216C68.9988 6.79498 67.9077 6.57139 66.6735 6.57139C65.1173 6.57139 63.7489 6.92913 62.5684 7.64462C61.4057 8.36011 60.6097 9.32602 60.1804 10.5423L63.4001 12.0717C63.6505 11.4278 64.0441 10.909 64.5807 10.5155C65.1352 10.122 65.7702 9.92524 66.4857 9.92524C67.2369 9.92524 67.8272 10.1131 68.2565 10.4887C68.7037 10.8643 68.9273 11.3294 68.9273 11.8839V12.2863L64.8758 12.9303C63.1229 13.2165 61.8171 13.762 60.9585 14.567C60.0999 15.3719 59.6706 16.3915 59.6706 17.6257C59.6706 18.9493 60.1268 19.9868 61.039 20.738C61.9692 21.4893 63.2213 21.8649 64.7953 21.8649ZM63.8294 17.4915C63.8294 17.0086 63.9815 16.6419 64.2855 16.3915C64.5896 16.1231 65.0279 15.9353 65.6003 15.828L68.9273 15.2377V15.6939C68.9273 16.5882 68.6232 17.3484 68.015 17.9745C67.4069 18.6005 66.6019 18.9136 65.6003 18.9136C65.0994 18.9136 64.6791 18.7883 64.3392 18.5379C63.9993 18.2875 63.8294 17.9387 63.8294 17.4915ZM80.2295 21.543H83.7175L89.4862 6.89336H85.1396L81.9735 15.667L78.8075 6.89336H74.4609L80.2295 21.543ZM91.2578 21.543H95.2824V13.6547C95.2824 12.5636 95.5865 11.7229 96.1947 11.1326C96.8028 10.5245 97.5988 10.2204 98.5826 10.2204H99.8437V6.73237H98.9851C98.0907 6.73237 97.2947 6.9023 96.5971 7.24216C95.9174 7.56413 95.3898 8.18124 95.0141 9.09348V6.89336H91.2578V21.543ZM101.608 5.57865H105.632V1.55403H101.608V5.57865ZM101.608 21.543H105.632V6.89336H101.608V21.543ZM115.768 21.8649C116.877 21.8649 117.897 21.6771 118.827 21.3015C119.757 20.908 120.553 20.3714 121.215 19.6916C121.876 19.0119 122.341 18.2428 122.61 17.3842L119.122 15.8548C118.871 16.5882 118.451 17.1696 117.861 17.5988C117.27 18.0281 116.573 18.2428 115.768 18.2428C114.713 18.2428 113.845 17.8672 113.165 17.1159C112.486 16.3646 112.146 15.3987 112.146 14.2182C112.146 13.0376 112.486 12.0717 113.165 11.3204C113.845 10.5692 114.713 10.1935 115.768 10.1935C116.555 10.1935 117.244 10.4082 117.834 10.8375C118.442 11.2668 118.871 11.8481 119.122 12.5815L122.61 11.079C122.324 10.1667 121.85 9.37968 121.188 8.71785C120.526 8.03814 119.73 7.51047 118.8 7.13484C117.87 6.75921 116.859 6.57139 115.768 6.57139C114.301 6.57139 112.978 6.9023 111.797 7.56413C110.616 8.22595 109.686 9.1382 109.007 10.3009C108.327 11.4456 107.987 12.7425 107.987 14.1913C107.987 15.6402 108.327 16.946 109.007 18.1086C109.704 19.2713 110.634 20.1925 111.797 20.8722C112.978 21.534 114.301 21.8649 115.768 21.8649Z" fill="#10182B"/>
<rect x="20.3292" y="0.943677" width="8.31829" height="22.0106" rx="4.15915" transform="rotate(25.767 20.3292 0.943677)" fill="url(#paint0_linear_3692_1694)" stroke="white" stroke-width="1.41345"/>
<rect x="10.5089" y="0.943677" width="8.31829" height="22.0106" rx="4.15915" transform="rotate(25.767 10.5089 0.943677)" fill="url(#paint1_linear_3692_1694)" stroke="white" stroke-width="1.41345"/>
<path d="M30.9698 18.1391C30.9698 20.5611 29.0064 22.5245 26.5844 22.5245C24.1624 22.5245 22.1989 20.5611 22.1989 18.1391C22.1989 15.717 24.1624 13.7536 26.5844 13.7536C29.0064 13.7536 30.9698 15.717 30.9698 18.1391Z" fill="url(#paint2_linear_3692_1694)" stroke="white" stroke-width="1.41345"/>
<defs>
<linearGradient id="paint0_linear_3692_1694" x1="27.9323" y1="2.50371" x2="24.2539" y2="23.3159" gradientUnits="userSpaceOnUse">
<stop stop-color="#116DFF"/>
<stop offset="1" stop-color="#6E9EFD"/>
</linearGradient>
<linearGradient id="paint1_linear_3692_1694" x1="18.1119" y1="2.50371" x2="14.4336" y2="23.3159" gradientUnits="userSpaceOnUse">
<stop stop-color="#116DFF"/>
<stop offset="1" stop-color="#6E9EFD"/>
</linearGradient>
<linearGradient id="paint2_linear_3692_1694" x1="26.5844" y1="13.0469" x2="26.5844" y2="23.2313" gradientUnits="userSpaceOnUse">
<stop stop-color="#BED4FF"/>
<stop offset="1" stop-color="#BED4FF"/>
</linearGradient>
</defs>
</svg>
