<svg width="123" height="26" viewBox="0 0 123 26" fill="none" xmlns="http://www.w3.org/2000/svg">
<path d="M35.3429 22.1641H39.3675V13.605C39.3675 12.7643 39.5911 12.0936 40.0383 11.5927C40.5033 11.074 41.1294 10.8146 41.9164 10.8146C42.7035 10.8146 43.3206 11.074 43.7677 11.5927C44.2328 12.0936 44.4653 12.7643 44.4653 13.605V22.1641H48.49V13.605C48.49 12.7643 48.7136 12.0936 49.1607 11.5927C49.6258 11.074 50.2519 10.8146 51.0389 10.8146C51.8259 10.8146 52.443 11.074 52.8902 11.5927C53.3553 12.0936 53.5878 12.7643 53.5878 13.605V22.1641H57.6124V12.7465C57.6124 11.6375 57.3799 10.6715 56.9148 9.84873C56.4498 9.00803 55.8058 8.35515 54.983 7.89008C54.1781 7.42502 53.248 7.19248 52.1926 7.19248C51.2446 7.19248 50.3771 7.3803 49.59 7.75593C48.8209 8.11367 48.1769 8.67712 47.6582 9.44627C47.2468 8.74867 46.6386 8.20311 45.8337 7.80959C45.0467 7.39819 44.1702 7.19248 43.2043 7.19248C42.2742 7.19248 41.4514 7.37136 40.7359 7.7291C40.0204 8.06896 39.4748 8.59663 39.0992 9.31212V7.51445H35.3429V22.1641ZM64.7953 22.486C66.6198 22.486 68.0866 21.9226 69.1956 20.7957V22.1641H72.9519V12.505C72.9519 11.4496 72.6836 10.5284 72.147 9.74141C71.6282 8.93648 70.8949 8.31043 69.9468 7.86325C68.9988 7.41607 67.9077 7.19248 66.6735 7.19248C65.1173 7.19248 63.7489 7.55023 62.5684 8.26572C61.4057 8.9812 60.6097 9.94711 60.1804 11.1634L63.4001 12.6928C63.6505 12.0489 64.0441 11.5301 64.5807 11.1366C65.1352 10.7431 65.7702 10.5463 66.4857 10.5463C67.2369 10.5463 67.8272 10.7341 68.2565 11.1098C68.7037 11.4854 68.9273 11.9505 68.9273 12.505V12.9074L64.8758 13.5514C63.1229 13.8376 61.8171 14.3831 60.9585 15.1881C60.0999 15.993 59.6706 17.0126 59.6706 18.2468C59.6706 19.5704 60.1268 20.6079 61.039 21.3591C61.9692 22.1104 63.2213 22.486 64.7953 22.486ZM63.8294 18.1126C63.8294 17.6297 63.9815 17.263 64.2855 17.0126C64.5896 16.7442 65.0279 16.5564 65.6003 16.4491L68.9273 15.8588V16.315C68.9273 17.2093 68.6232 17.9695 68.015 18.5956C67.4069 19.2216 66.6019 19.5346 65.6003 19.5346C65.0994 19.5346 64.6791 19.4094 64.3392 19.159C63.9993 18.9086 63.8294 18.5598 63.8294 18.1126ZM80.2295 22.1641H83.7175L89.4862 7.51445H85.1396L81.9735 16.2881L78.8075 7.51445H74.4609L80.2295 22.1641ZM91.2578 22.1641H95.2824V14.2758C95.2824 13.1847 95.5865 12.344 96.1947 11.7537C96.8028 11.1456 97.5988 10.8415 98.5826 10.8415H99.8437V7.35347H98.9851C98.0907 7.35347 97.2947 7.5234 96.5971 7.86325C95.9174 8.18522 95.3898 8.80233 95.0141 9.71458V7.51445H91.2578V22.1641ZM101.608 6.19974H105.632V2.17513H101.608V6.19974ZM101.608 22.1641H105.632V7.51445H101.608V22.1641ZM115.768 22.486C116.877 22.486 117.897 22.2982 118.827 21.9226C119.757 21.5291 120.553 20.9925 121.215 20.3127C121.876 19.633 122.341 18.8639 122.61 18.0053L119.122 16.4759C118.871 17.2093 118.451 17.7906 117.861 18.2199C117.27 18.6492 116.573 18.8639 115.768 18.8639C114.713 18.8639 113.845 18.4882 113.165 17.737C112.486 16.9857 112.146 16.0198 112.146 14.8393C112.146 13.6587 112.486 12.6928 113.165 11.9415C113.845 11.1903 114.713 10.8146 115.768 10.8146C116.555 10.8146 117.244 11.0293 117.834 11.4586C118.442 11.8879 118.871 12.4692 119.122 13.2026L122.61 11.7001C122.324 10.7878 121.85 10.0008 121.188 9.33895C120.526 8.65923 119.73 8.13156 118.8 7.75593C117.87 7.3803 116.859 7.19248 115.768 7.19248C114.301 7.19248 112.978 7.5234 111.797 8.18522C110.616 8.84705 109.686 9.7593 109.007 10.922C108.327 12.0667 107.987 13.3636 107.987 14.8124C107.987 16.2613 108.327 17.5671 109.007 18.7297C109.704 19.8924 110.634 20.8136 111.797 21.4933C112.978 22.1551 114.301 22.486 115.768 22.486Z" fill="#10182B"/>
<rect x="20.3292" y="1.56477" width="8.31829" height="22.0106" rx="4.15915" transform="rotate(25.767 20.3292 1.56477)" fill="url(#paint0_linear_0_1)" stroke="white" stroke-width="1.41345"/>
<rect x="10.5089" y="1.56477" width="8.31829" height="22.0106" rx="4.15915" transform="rotate(25.767 10.5089 1.56477)" fill="url(#paint1_linear_0_1)" stroke="white" stroke-width="1.41345"/>
<path d="M30.9698 18.7602C30.9698 21.1822 29.0064 23.1456 26.5844 23.1456C24.1624 23.1456 22.1989 21.1822 22.1989 18.7602C22.1989 16.3381 24.1624 14.3747 26.5844 14.3747C29.0064 14.3747 30.9698 16.3381 30.9698 18.7602Z" fill="url(#paint2_linear_0_1)" stroke="white" stroke-width="1.41345"/>
<defs>
<linearGradient id="paint0_linear_0_1" x1="27.9323" y1="3.12481" x2="24.2539" y2="23.937" gradientUnits="userSpaceOnUse">
<stop stop-color="#116DFF"/>
<stop offset="1" stop-color="#6E9EFD"/>
</linearGradient>
<linearGradient id="paint1_linear_0_1" x1="18.1119" y1="3.12481" x2="14.4336" y2="23.937" gradientUnits="userSpaceOnUse">
<stop stop-color="#116DFF"/>
<stop offset="1" stop-color="#6E9EFD"/>
</linearGradient>
<linearGradient id="paint2_linear_0_1" x1="26.5844" y1="13.668" x2="26.5844" y2="23.8524" gradientUnits="userSpaceOnUse">
<stop stop-color="#BED4FF"/>
<stop offset="1" stop-color="#BED4FF"/>
</linearGradient>
</defs>
</svg>
