<svg width="17" height="17" viewBox="0 0 17 17" fill="none" xmlns="http://www.w3.org/2000/svg">
<path fill-rule="evenodd" clip-rule="evenodd" d="M8.88281 5.8956C7.27617 5.8956 5.97372 7.19804 5.97372 8.80469C5.97372 10.4113 7.27617 11.7138 8.88281 11.7138C10.4895 11.7138 11.7919 10.4113 11.7919 8.80469C11.7919 7.19804 10.4895 5.8956 8.88281 5.8956ZM7.42827 8.80469C7.42827 8.00136 8.07949 7.35014 8.88281 7.35014C9.68614 7.35014 10.3374 8.00136 10.3374 8.80469C10.3374 9.60801 9.68614 10.2592 8.88281 10.2592C8.07949 10.2592 7.42827 9.60801 7.42827 8.80469Z" fill="#324552"/>
<path fill-rule="evenodd" clip-rule="evenodd" d="M7.5605 0.804688C7.20902 0.804688 6.90783 1.05605 6.84496 1.40186L6.65672 2.43715C6.41615 2.52125 6.18182 2.61858 5.95463 2.72824L5.08922 2.12911C4.80024 1.92904 4.40953 1.96427 4.16099 2.21281L2.29096 4.08284C2.04242 4.33138 2.00719 4.72209 2.20726 5.01107L2.80638 5.87647C2.69671 6.10367 2.59938 6.33801 2.51528 6.5786L1.47999 6.76683C1.13418 6.82971 0.882812 7.13089 0.882812 7.48237V10.127C0.882812 10.4785 1.13418 10.7797 1.47999 10.8425L2.51528 11.0308C2.59938 11.2714 2.69671 11.5057 2.80638 11.7329L2.20726 12.5983C2.00719 12.8873 2.04242 13.278 2.29095 13.5265L4.16099 15.3966C4.40952 15.6451 4.80023 15.6803 5.08922 15.4803L5.95462 14.8811C6.18182 14.9908 6.41615 15.0881 6.65672 15.1722L6.84496 16.2075C6.90783 16.5533 7.20902 16.8047 7.5605 16.8047H10.2051C10.5566 16.8047 10.8578 16.5533 10.9207 16.2075L11.1089 15.1722C11.3495 15.0881 11.5838 14.9908 11.811 14.8811L12.6764 15.4803C12.9654 15.6803 13.3561 15.6451 13.6047 15.3966L15.4747 13.5265C15.7232 13.278 15.7585 12.8873 15.5584 12.5983L14.9593 11.7329C15.0689 11.5057 15.1662 11.2714 15.2503 11.0308L16.2856 10.8425C16.6314 10.7797 16.8828 10.4785 16.8828 10.127V7.48237C16.8828 7.13089 16.6315 6.82971 16.2856 6.76683L15.2503 6.5786C15.1662 6.33802 15.0689 6.1037 14.9593 5.8765L15.5584 5.01108C15.7585 4.7221 15.7232 4.33139 15.4747 4.08285L13.6047 2.21282C13.3561 1.96428 12.9654 1.92905 12.6764 2.12912L11.811 2.72825C11.5838 2.61858 11.3495 2.52126 11.1089 2.43715L10.9207 1.40186C10.8578 1.05605 10.5566 0.804688 10.2051 0.804688H7.5605ZM8.00907 3.13039L8.16746 2.25923H9.59816L9.75655 3.13039C9.80664 3.40584 10.0104 3.62808 10.2804 3.70186C10.712 3.81976 11.1218 3.99106 11.5022 4.20837C11.7453 4.34728 12.0466 4.33424 12.2769 4.17483L13.0053 3.67053L14.017 4.68218L13.5127 5.41063C13.3533 5.64088 13.3402 5.9422 13.4791 6.18536C13.6964 6.56574 13.8677 6.97546 13.9856 7.40705C14.0594 7.67712 14.2817 7.88086 14.5571 7.93095L15.4283 8.08934V9.52004L14.5571 9.67843C14.2817 9.72851 14.0594 9.93225 13.9856 10.2023C13.8677 10.6339 13.6964 11.0436 13.4791 11.424C13.3402 11.6672 13.3533 11.9685 13.5127 12.1987L14.017 12.9272L13.0053 13.9388L12.2769 13.4345C12.0466 13.2751 11.7453 13.2621 11.5022 13.401C11.1218 13.6183 10.712 13.7896 10.2804 13.9075C10.0104 13.9813 9.80664 14.2035 9.75655 14.479L9.59816 15.3501H8.16746L8.00907 14.479C7.95899 14.2035 7.75525 13.9813 7.48518 13.9075C7.05358 13.7896 6.64386 13.6183 6.26348 13.401C6.02032 13.2621 5.719 13.2752 5.48875 13.4346L4.76032 13.9389L3.74866 12.9272L4.25296 12.1988C4.41236 11.9685 4.4254 11.6672 4.28649 11.424C4.06918 11.0437 3.89789 10.6339 3.77998 10.2023C3.70621 9.93225 3.48396 9.72851 3.20852 9.67843L2.33736 9.52004V8.08934L3.20852 7.93094C3.48396 7.88086 3.70621 7.67712 3.77998 7.40705C3.89789 6.97545 4.06919 6.56572 4.2865 6.18533C4.42541 5.94217 4.41237 5.64085 4.25296 5.4106L3.74867 4.68217L4.76032 3.67052L5.48876 4.17482C5.71901 4.33422 6.02033 4.34726 6.26349 4.20835C6.64387 3.99105 7.05359 3.81976 7.48518 3.70186C7.75525 3.62808 7.95899 3.40584 8.00907 3.13039Z" fill="#324552"/>
</svg>
