<svg width="3" height="12" viewBox="0 0 3 12" fill="none" xmlns="http://www.w3.org/2000/svg">
<path fill-rule="evenodd" clip-rule="evenodd" d="M2.97656 1.51074C2.97656 2.1531 2.45582 2.67383 1.81349 2.67383C1.17117 2.67383 0.650421 2.1531 0.650421 1.51074C0.650421 0.868385 1.17117 0.347656 1.81349 0.347656C2.45582 0.347656 2.97656 0.868385 2.97656 1.51074ZM2.97656 6.16296C2.97656 6.8053 2.45582 7.32605 1.81349 7.32605C1.17117 7.32605 0.650421 6.8053 0.650421 6.16296C0.650421 5.52063 1.17117 4.99988 1.81349 4.99988C2.45582 4.99988 2.97656 5.52063 2.97656 6.16296ZM2.97656 10.8155C2.97656 11.4579 2.45582 11.9786 1.81349 11.9786C1.17117 11.9786 0.650421 11.4579 0.650421 10.8155C0.650421 10.1731 1.17117 9.65234 1.81349 9.65234C2.45582 9.65234 2.97656 10.1731 2.97656 10.8155Z" fill="#637893"/>
</svg>
