<svg width="19" height="19" viewBox="0 0 19 19" fill="none" xmlns="http://www.w3.org/2000/svg">
<path d="M1 10.4445H18V14C18 15.8856 18 16.8284 17.4142 17.4142C16.8284 18 15.8856 18 14 18H5C3.11438 18 2.17157 18 1.58579 17.4142C1 16.8284 1 15.8856 1 14V10.4445Z" fill="#B0D2D0"/>
<rect x="1" y="1" width="17" height="17" rx="2" stroke="#17A398" strokeWidth="2"/>
<path d="M10.0142 5L6.59998 6.46325L10.0142 7.92649L13.4285 6.46325L10.0142 5Z" stroke="#17A398" strokeWidth="1.2" stroke-linejoin="round"/>
<path fill-rule="evenodd" clip-rule="evenodd" d="M7.57303 8.19316L6.36365 8.71147C6.14304 8.80601 6 9.02294 6 9.26295C6 9.50297 6.14304 9.71989 6.36365 9.81444L9.77789 11.2777C9.92882 11.3424 10.0997 11.3424 10.2506 11.2777L13.6648 9.81444C13.8854 9.71989 14.0285 9.50297 14.0285 9.26295C14.0285 9.02294 13.8854 8.80601 13.6648 8.71147L12.4554 8.19316L10.9323 8.84594L11.9053 9.26295L10.0142 10.0734L8.12315 9.26295L9.09618 8.84594L7.57303 8.19316ZM9.79464 7.24134C9.93576 7.18583 10.0927 7.18583 10.2338 7.24134L10.0142 7.33545L9.79464 7.24134Z" fill="#17A398"/>
<path fill-rule="evenodd" clip-rule="evenodd" d="M7.57303 10.9915L6.36365 11.5098C6.14304 11.6044 6 11.8213 6 12.0613C6 12.3013 6.14304 12.5182 6.36365 12.6128L9.77789 14.076C9.92882 14.1407 10.0997 14.1407 10.2506 14.076L13.6648 12.6128C13.8854 12.5182 14.0285 12.3013 14.0285 12.0613C14.0285 11.8213 13.8854 11.6044 13.6648 11.5098L12.4554 10.9915L10.9323 11.6443L11.9053 12.0613L10.0142 12.8718L8.12315 12.0613L9.09618 11.6443L7.57303 10.9915ZM9.79464 10.0397C9.93576 9.98417 10.0927 9.98417 10.2338 10.0397L10.0142 10.1338L9.79464 10.0397Z" fill="#17A398"/>
</svg>
