<svg width="21" height="21" viewBox="0 0 21 21" fill="none" xmlns="http://www.w3.org/2000/svg">
<path d="M11.3828 18.1325H7.37743V10.604L5.22644 8.453H16.5191L14.3681 10.0662L13.8304 13.2927L13.2927 17.057L11.3828 18.1325Z" fill="#EEAB9B"/>
<path d="M8.08527 18.972L7.74517 17.9517L7.74517 17.9517L8.08527 18.972ZM13.4627 17.1795L13.1226 16.1592L13.1226 16.1592L13.4627 17.1795ZM18.8929 5.54149L18.1324 4.781L18.8929 5.54149ZM14.1454 10.289L14.9059 11.0494L14.1454 10.289ZM7.06247 10.289L6.30198 11.0494L7.06247 10.289ZM3.0755 3.0755H18.1324V0.924505H3.0755V3.0755ZM3.0755 4.781V3.07549H0.924505V4.781H3.0755ZM7.82296 9.52846L3.07549 4.781L1.55452 6.30198L6.30198 11.0494L7.82296 9.52846ZM6.30198 11.0494V18.4618H8.45297V11.0494H6.30198ZM6.30198 18.4618C6.30198 19.563 7.38075 20.3405 8.42537 19.9923L7.74517 17.9517C8.09338 17.8356 8.45297 18.0948 8.45297 18.4618H6.30198ZM8.42537 19.9923L13.8028 18.1998L13.1226 16.1592L7.74517 17.9517L8.42537 19.9923ZM13.8028 18.1998C14.4616 17.9802 14.9059 17.3637 14.9059 16.6693H12.7549C12.7549 16.4379 12.9031 16.2324 13.1226 16.1592L13.8028 18.1998ZM14.9059 16.6693V11.0494H12.7549V16.6693H14.9059ZM18.1324 4.781L13.385 9.52846L14.9059 11.0494L19.6534 6.30198L18.1324 4.781ZM18.1324 3.0755V4.781H20.2834V3.0755H18.1324ZM19.6534 6.30198C20.0568 5.89859 20.2834 5.35148 20.2834 4.781H18.1324L18.1324 4.781L19.6534 6.30198ZM14.9059 11.0494L14.9059 11.0494L13.385 9.52846C12.9816 9.93185 12.7549 10.479 12.7549 11.0494H14.9059ZM6.30198 11.0494L6.30198 11.0494H8.45297C8.45297 10.479 8.22635 9.93185 7.82296 9.52846L6.30198 11.0494ZM0.924505 4.781C0.924505 5.35148 1.15113 5.89859 1.55452 6.30198L3.07549 4.781L3.0755 4.781H0.924505ZM18.1324 3.0755L18.1324 3.0755H20.2834C20.2834 1.88754 19.3204 0.924505 18.1324 0.924505V3.0755ZM3.0755 0.924505C1.88754 0.924505 0.924505 1.88753 0.924505 3.07549H3.0755L3.0755 3.0755V0.924505Z" fill="#EE6C4D"/>
</svg>
