<svg width="38" height="38" viewBox="0 0 38 38" fill="none" xmlns="http://www.w3.org/2000/svg">
<rect width="37.8097" height="37.8128" rx="5.56026" fill="#4790F6"/>
<path d="M13.1719 23.4141L15.6159 20.97L12.7549 18.109L10.3108 20.553L13.1719 23.4141Z" fill="white"/>
<path d="M13.1719 23.4141L15.6159 20.97L12.7549 18.109L10.3108 20.553L13.1719 23.4141Z" fill="white"/>
<path d="M13.1719 23.4141L15.6159 20.97L12.7549 18.109L10.3108 20.553L13.1719 23.4141Z" fill="white"/>
<rect width="3.45638" height="8.98658" transform="matrix(0.707107 -0.707107 -0.707107 -0.707107 19.8438 23.7266)" fill="white"/>
<rect width="3.45638" height="8.98658" transform="matrix(0.707107 -0.707107 -0.707107 -0.707107 19.8438 23.7266)" fill="white"/>
<rect width="3.45638" height="8.98658" transform="matrix(0.707107 -0.707107 -0.707107 -0.707107 19.8438 23.7266)" fill="white"/>
<rect width="3.45638" height="13.1342" transform="matrix(0.707107 -0.707107 -0.707107 -0.707107 25.9609 23.4844)" fill="white"/>
<rect width="3.45638" height="13.1342" transform="matrix(0.707107 -0.707107 -0.707107 -0.707107 25.9609 23.4844)" fill="white"/>
<rect width="3.45638" height="13.1342" transform="matrix(0.707107 -0.707107 -0.707107 -0.707107 25.9609 23.4844)" fill="white"/>
</svg>
