<svg width="17" height="17" viewBox="0 0 17 17" fill="none" xmlns="http://www.w3.org/2000/svg">
<path d="M15.64 9.34998H1.35998H0.849976V13.7214V14.6928L1.35998 15.6643L2.37998 16.15H12.07H15.13L16.15 15.1785V10.3214L15.64 9.34998Z" fill="#E6C9EC"/>
<path d="M0.849976 9.30005H16.7875" stroke="#AA60BC" strokeWidth="1.7" stroke-miterlimit="1.41421"/>
<path d="M13 16.1H4C3.03175 16.1 2.3961 16.0981 1.92538 16.0348C1.48055 15.975 1.31998 15.8756 1.22218 15.7778C1.12438 15.68 1.025 15.5194 0.965198 15.0746C0.901911 14.6039 0.9 13.9683 0.9 13V4C0.9 3.03175 0.901911 2.3961 0.965198 1.92538C1.025 1.48055 1.12438 1.31998 1.22218 1.22218C1.31998 1.12438 1.48055 1.025 1.92538 0.965198C2.3961 0.901911 3.03175 0.9 4 0.9H4.64207C5.57325 0.9 5.77647 0.917284 5.94582 0.990651C6.11517 1.06402 6.26677 1.20045 6.90364 1.87978L7.7207 2.75131C7.75258 2.78532 7.7841 2.81903 7.81532 2.85243C8.30454 3.37567 8.72008 3.82011 9.27613 4.06101C9.83218 4.30191 10.4406 4.30109 11.1569 4.30012C11.2027 4.30006 11.2488 4.3 11.2954 4.3H13C13.9683 4.3 14.6039 4.30191 15.0746 4.3652C15.5194 4.425 15.68 4.52438 15.7778 4.62218C15.8756 4.71998 15.975 4.88055 16.0348 5.32538C16.0981 5.7961 16.1 6.43175 16.1 7.4V13C16.1 13.9683 16.0981 14.6039 16.0348 15.0746C15.975 15.5194 15.8756 15.68 15.7778 15.7778C15.68 15.8756 15.5194 15.975 15.0746 16.0348C14.6039 16.0981 13.9683 16.1 13 16.1Z" stroke="#AA60BC" strokeWidth="1.8" stroke-linejoin="round"/>
</svg>
